# xmcd
#
# Track frame offsets: 
#        150
#        7473
#        21228
#        33662
#        49897
#        64627
#        77219
#        89289
#        101709
#        114570
#        128231
#        141971
#
# Disc length: 2052 seconds
#
# Revision: 0
# Processed by: cddbd v1.5.2PL0 Copyright (c) Steve Scherf et al.
# Submitted via: ExactAudioCopy v0.95b3
#
DISCID=ab08020c
DTITLE=The Beatles  - Live At The Hollywood Bowl Again (NEW EBBETTS)  
DTITLE=FLAC
DYEAR=1900
DGENRE=
TTITLE0=Twist And Shout
TTITLE1=She's A Woman
TTITLE2=I Feel Fine
TTITLE3=Dizzy Miss Lizzie
TTITLE4=Ticket To Ride
TTITLE5=Everybody's Trying To Be My Baby
TTITLE6=Can't Buy Me Love
TTITLE7=Baby's In Black
TTITLE8=I Wanna Be Your Man
TTITLE9=A Hard Day's Night
TTITLE10=Help
TTITLE11=I'm Down
EXTD=
EXTT0=
EXTT1=
EXTT2=
EXTT3=
EXTT4=
EXTT5=
EXTT6=
EXTT7=
EXTT8=
EXTT9=
EXTT10=
EXTT11=
PLAYORDER=
